<svg width="22" height="19" viewBox="0 0 22 19" fill="none" xmlns="http://www.w3.org/2000/svg">
<path d="M16.7986 11.7461C16.7986 11.5313 16.6315 11.3643 16.4168 11.3643H15.6532C15.4385 11.3643 15.2714 11.5313 15.2714 11.7461V15.5639C15.2714 16.6138 14.4124 17.4729 13.3625 17.4729H3.43607C2.38616 17.4729 1.52714 16.6138 1.52714 15.5639V5.6375C1.52714 4.58759 2.38616 3.72857 3.43607 3.72857H11.8354C12.0501 3.72857 12.2171 3.56154 12.2171 3.34679V2.58321C12.2171 2.36846 12.0501 2.20143 11.8354 2.20143H3.43607C1.53907 2.20143 0 3.7405 0 5.6375V15.5639C0 17.4609 1.53907 19 3.43607 19H13.3625C15.2595 19 16.7986 17.4609 16.7986 15.5639V11.7461ZM21.38 1.43786C21.38 1.02028 21.034 0.674285 20.6164 0.674285H14.5079C14.0903 0.674285 13.7443 1.02028 13.7443 1.43786C13.7443 1.64068 13.8278 1.83157 13.971 1.97474L16.0708 4.07456L8.29191 11.8534C8.22032 11.925 8.1726 12.0324 8.1726 12.1279C8.1726 12.2233 8.22032 12.3307 8.29191 12.4023L9.65202 13.7624C9.7236 13.834 9.83098 13.8817 9.92643 13.8817C10.0219 13.8817 10.1293 13.834 10.2008 13.7624L17.9797 5.98349L20.0795 8.08331C20.2227 8.22648 20.4136 8.31 20.6164 8.31C21.034 8.31 21.38 7.96401 21.38 7.54643V1.43786Z" fill="white"/>
</svg>
