<svg height="256pt" preserveAspectRatio="xMidYMid meet" viewBox="0 0 256 256" width="256pt" xmlns="http://www.w3.org/2000/svg"><path d="m0 1280v-1280h1280 1280v1280 1280h-1280-1280zm1050 659c142-23 283-90 393-189 31-28 57-55 57-59s-38-43-85-85l-85-78-53 47c-28 25-82 61-119 80-300 150-638-26-665-347-16-187 74-356 231-434 183-90 382-62 540 76 31 27 60 50 64 50 14 0 164-158 161-169-7-19-122-112-189-151-108-64-175-82-335-87-108-4-156-1-210 11-226 53-400 213-475 436-31 91-39 296-16 395 80 341 426 563 786 504zm808-611 2-588h251 250l-3-57-3-58-312-3-313-2v643c0 354 3 647 7 651s32 6 63 4l55-3z" transform="matrix(.1 0 0 -.1 0 256)"/></svg>